<svg width="18" height="18" viewBox="0 0 18 18" fill="none" xmlns="http://www.w3.org/2000/svg">
<path d="M15.8843 5.25874L12.742 2.11648C12.6506 2.02506 12.5421 1.95254 12.4227 1.90307C12.3032 1.85359 12.1752 1.82812 12.0459 1.82812C11.9167 1.82812 11.7886 1.85359 11.6692 1.90307C11.5498 1.95254 11.4413 2.02506 11.3498 2.11648L2.67891 10.7867C2.58732 10.878 2.51469 10.9865 2.46521 11.106C2.41574 11.2254 2.39039 11.3535 2.39063 11.4828V14.6251C2.39063 14.8861 2.49434 15.1365 2.67894 15.3211C2.86355 15.5057 3.11393 15.6094 3.375 15.6094H15.1875C15.2994 15.6094 15.4067 15.565 15.4858 15.4859C15.5649 15.4068 15.6094 15.2995 15.6094 15.1876C15.6094 15.0757 15.5649 14.9684 15.4858 14.8893C15.4067 14.8101 15.2994 14.7657 15.1875 14.7657H7.76883L15.8843 6.65093C15.9757 6.55952 16.0482 6.451 16.0977 6.33156C16.1472 6.21213 16.1727 6.08412 16.1727 5.95484C16.1727 5.82556 16.1472 5.69755 16.0977 5.57811C16.0482 5.45867 15.9757 5.35015 15.8843 5.25874ZM6.57563 14.7657H3.375C3.33771 14.7657 3.30194 14.7509 3.27556 14.7245C3.24919 14.6981 3.23438 14.6624 3.23438 14.6251V11.4828C3.23453 11.4456 3.24945 11.4099 3.27586 11.3837L9.5625 5.09702L12.9038 8.43757L6.57563 14.7657ZM15.2873 6.05398L13.5 7.84132L10.1595 4.50007L11.9461 2.71343C11.9592 2.70036 11.9747 2.68998 11.9917 2.68291C12.0088 2.67583 12.0271 2.67219 12.0456 2.67219C12.0641 2.67219 12.0824 2.67583 12.0994 2.68291C12.1165 2.68998 12.132 2.70036 12.1451 2.71343L15.2873 5.85499C15.3004 5.86805 15.3108 5.88356 15.3179 5.90063C15.3249 5.91771 15.3286 5.936 15.3286 5.95448C15.3286 5.97297 15.3249 5.99126 15.3179 6.00834C15.3108 6.02541 15.3004 6.04092 15.2873 6.05398Z" fill="#041662"/>
</svg>
